<?xml version="1.0" encoding="iso-8859-1"?>
<!-- Generator: Adobe Illustrator 16.0.0, SVG Export Plug-In . SVG Version: 6.00 Build 0)  -->
<!DOCTYPE svg PUBLIC "-//W3C//DTD SVG 1.1//EN" "http://www.w3.org/Graphics/SVG/1.1/DTD/svg11.dtd">
<svg version="1.1" id="Capa_1" xmlns="http://www.w3.org/2000/svg" xmlns:xlink="http://www.w3.org/1999/xlink" x="0px" y="0px"
	 width="612px" height="612px" viewBox="0 0 612 612" style="enable-background:new 0 0 612 612;" xml:space="preserve">
<g>
	<g>
		<path d="M471.428,552.48h75.987c21.525,0,38.311-16.778,38.311-38.311V132.345c0-10.449-3.877-19.554-11.084-26.917
			c-7.362-7.518-16.46-11.395-27.227-11.395h-75.987c-10.449,0-19.709,3.722-27.227,11.395
			c-7.362,7.524-11.084,16.467-11.084,26.917V514.17c0,10.767,3.722,20.026,11.084,27.227
			C451.719,548.759,460.979,552.48,471.428,552.48z M468.26,132.345c0-1.27,1.898-3.168,3.168-3.168h75.987
			c2.215,0,3.167,0.946,3.167,3.168V514.17c0,2.215-0.952,3.168-3.167,3.168h-75.987c-2.215,0-3.168-0.953-3.168-3.168V132.345z"/>
		<path d="M287.162,552.48h75.986c21.526,0,38.312-16.778,38.312-38.311V219.091c0-10.449-3.797-19.628-11.084-26.909
			c-7.281-7.281-16.468-11.084-27.228-11.084h-75.986c-10.449,0-19.547,3.877-26.91,11.401
			c-7.207,7.355-11.083,16.143-11.083,26.592V514.17c0,10.767,3.796,19.945,11.083,27.227
			C267.534,548.678,276.713,552.48,287.162,552.48z M283.994,219.091c0-2.215,0.953-3.167,3.168-3.167h75.986
			c2.216,0,3.168,0.952,3.168,3.167V514.17c0,2.215-0.952,3.168-3.168,3.168h-75.986c-2.215,0-3.168-0.953-3.168-3.168V219.091z"/>
		<path d="M103.213,552.48h75.669c10.449,0,19.554-3.877,26.909-11.084c7.524-7.362,11.401-16.46,11.401-27.227V382.459
			c0-10.441-3.958-19.148-11.401-26.592s-16.467-11.401-26.909-11.401h-75.669c-10.766,0-19.945,3.803-27.227,11.084
			s-11.084,16.468-11.084,26.909V514.17C64.903,535.702,81.688,552.48,103.213,552.48z M100.046,382.459
			c0-2.215,0.952-3.16,3.167-3.16h75.669c1.27,0,3.485,1.897,3.485,3.16V514.17c0,2.215-1.27,3.168-3.485,3.168h-75.669
			c-2.215,0-3.167-0.953-3.167-3.168V382.459z"/>
		<path d="M594.587,577.175H35.143V17.413C35.143,7.599,27.227,0,17.413,0C7.599,0,0,7.599,0,17.413v577.174
			C0,604.401,7.599,612,17.413,612h577.174c9.814,0,17.413-7.599,17.413-17.413C612,584.773,604.401,577.175,594.587,577.175z"/>
	</g>
</g>
<g>
</g>
<g>
</g>
<g>
</g>
<g>
</g>
<g>
</g>
<g>
</g>
<g>
</g>
<g>
</g>
<g>
</g>
<g>
</g>
<g>
</g>
<g>
</g>
<g>
</g>
<g>
</g>
<g>
</g>
</svg>
