<?xml version="1.0" ?><svg style="enable-background:new 0 0 24 24;" version="1.1" viewBox="0 0 24 24" xml:space="preserve" xmlns="http://www.w3.org/2000/svg" xmlns:xlink="http://www.w3.org/1999/xlink"><style type="text/css">
	.st0{display:none;}
</style><g class="st0" id="grid"/><g id="icon"><path d="M12,0C5.383,0,0,5.383,0,12s5.383,12,12,12s12-5.383,12-12S18.617,0,12,0z M12,23C5.935,23,1,18.065,1,12S5.935,1,12,1   s11,4.935,11,11S18.065,23,12,23z"/><path d="M15.854,8.146c-0.195-0.195-0.512-0.195-0.707,0L12,11.293L8.854,8.146c-0.195-0.195-0.512-0.195-0.707,0   s-0.195,0.512,0,0.707L11.293,12l-3.146,3.146c-0.195,0.195-0.195,0.512,0,0.707C8.244,15.951,8.372,16,8.5,16   s0.256-0.049,0.354-0.146L12,12.707l3.146,3.146C15.244,15.951,15.372,16,15.5,16s0.256-0.049,0.354-0.146   c0.195-0.195,0.195-0.512,0-0.707L12.707,12l3.146-3.146C16.049,8.658,16.049,8.342,15.854,8.146z"/></g></svg>